<svg width="76" height="75" viewBox="0 0 76 75" fill="none" xmlns="http://www.w3.org/2000/svg">
<circle cx="37.5046" cy="37.5" r="37.5" fill="white"/>
<path d="M27.335 58.21L27.33 59H22.915V51.835H27.33V52.625H23.885V55.005H26.675V55.765H23.885V58.21H27.335ZM29.1798 54.67C29.2898 54.5467 29.4064 54.435 29.5298 54.335C29.6531 54.235 29.7831 54.15 29.9198 54.08C30.0598 54.0067 30.2064 53.9517 30.3598 53.915C30.5164 53.875 30.6848 53.855 30.8648 53.855C31.1414 53.855 31.3848 53.9017 31.5948 53.995C31.8081 54.085 31.9848 54.215 32.1248 54.385C32.2681 54.5517 32.3764 54.7533 32.4498 54.99C32.5231 55.2267 32.5598 55.4883 32.5598 55.775V59H31.6648V55.775C31.6648 55.3917 31.5764 55.095 31.3998 54.885C31.2264 54.6717 30.9614 54.565 30.6048 54.565C30.3414 54.565 30.0948 54.6283 29.8648 54.755C29.6381 54.8817 29.4281 55.0533 29.2348 55.27V59H28.3398V53.935H28.8748C29.0014 53.935 29.0798 53.9967 29.1098 54.12L29.1798 54.67ZM37.3059 55.915C37.3059 55.7083 37.2759 55.52 37.2159 55.35C37.1593 55.1767 37.0743 55.0283 36.9609 54.905C36.8509 54.7783 36.7159 54.6817 36.5559 54.615C36.3959 54.545 36.2143 54.51 36.0109 54.51C35.5843 54.51 35.2459 54.635 34.9959 54.885C34.7493 55.1317 34.5959 55.475 34.5359 55.915H37.3059ZM38.0259 58.29C37.9159 58.4233 37.7843 58.54 37.6309 58.64C37.4776 58.7367 37.3126 58.8167 37.1359 58.88C36.9626 58.9433 36.7826 58.99 36.5959 59.02C36.4093 59.0533 36.2243 59.07 36.0409 59.07C35.6909 59.07 35.3676 59.0117 35.0709 58.895C34.7776 58.775 34.5226 58.6017 34.3059 58.375C34.0926 58.145 33.9259 57.8617 33.8059 57.525C33.6859 57.1883 33.6259 56.8017 33.6259 56.365C33.6259 56.0117 33.6793 55.6817 33.7859 55.375C33.8959 55.0683 34.0526 54.8033 34.2559 54.58C34.4593 54.3533 34.7076 54.1767 35.0009 54.05C35.2943 53.92 35.6243 53.855 35.9909 53.855C36.2943 53.855 36.5743 53.9067 36.8309 54.01C37.0909 54.11 37.3143 54.2567 37.5009 54.45C37.6909 54.64 37.8393 54.8767 37.9459 55.16C38.0526 55.44 38.1059 55.76 38.1059 56.12C38.1059 56.26 38.0909 56.3533 38.0609 56.4C38.0309 56.4467 37.9743 56.47 37.8909 56.47H34.5059C34.5159 56.79 34.5593 57.0683 34.6359 57.305C34.7159 57.5417 34.8259 57.74 34.9659 57.9C35.1059 58.0567 35.2726 58.175 35.4659 58.255C35.6593 58.3317 35.8759 58.37 36.1159 58.37C36.3393 58.37 36.5309 58.345 36.6909 58.295C36.8543 58.2417 36.9943 58.185 37.1109 58.125C37.2276 58.065 37.3243 58.01 37.4009 57.96C37.4809 57.9067 37.5493 57.88 37.6059 57.88C37.6793 57.88 37.7359 57.9083 37.7759 57.965L38.0259 58.29ZM40.0441 54.95C40.2041 54.6033 40.4008 54.3333 40.6341 54.14C40.8675 53.9433 41.1525 53.845 41.4891 53.845C41.5958 53.845 41.6975 53.8567 41.7941 53.88C41.8941 53.9033 41.9825 53.94 42.0591 53.99L41.9941 54.655C41.9741 54.7383 41.9241 54.78 41.8441 54.78C41.7975 54.78 41.7291 54.77 41.6391 54.75C41.5491 54.73 41.4475 54.72 41.3341 54.72C41.1741 54.72 41.0308 54.7433 40.9041 54.79C40.7808 54.8367 40.6691 54.9067 40.5691 55C40.4725 55.09 40.3841 55.2033 40.3041 55.34C40.2275 55.4733 40.1575 55.6267 40.0941 55.8V59H39.1991V53.935H39.7091C39.8058 53.935 39.8725 53.9533 39.9091 53.99C39.9458 54.0267 39.9708 54.09 39.9841 54.18L40.0441 54.95ZM44.4895 56.525C44.6695 56.525 44.8279 56.5 44.9645 56.45C45.1012 56.4 45.2162 56.33 45.3095 56.24C45.4029 56.15 45.4729 56.0433 45.5195 55.92C45.5662 55.7933 45.5895 55.655 45.5895 55.505C45.5895 55.195 45.4945 54.9483 45.3045 54.765C45.1179 54.5817 44.8462 54.49 44.4895 54.49C44.1295 54.49 43.8545 54.5817 43.6645 54.765C43.4779 54.9483 43.3845 55.195 43.3845 55.505C43.3845 55.655 43.4079 55.7933 43.4545 55.92C43.5045 56.0433 43.5762 56.15 43.6695 56.24C43.7629 56.33 43.8779 56.4 44.0145 56.45C44.1512 56.5 44.3095 56.525 44.4895 56.525ZM46.0945 59.275C46.0945 59.1517 46.0595 59.0517 45.9895 58.975C45.9195 58.8983 45.8245 58.8383 45.7045 58.795C45.5879 58.7517 45.4512 58.7217 45.2945 58.705C45.1379 58.685 44.9712 58.67 44.7945 58.66C44.6212 58.65 44.4445 58.64 44.2645 58.63C44.0845 58.62 43.9112 58.6033 43.7445 58.58C43.5579 58.6667 43.4045 58.7767 43.2845 58.91C43.1679 59.04 43.1095 59.1933 43.1095 59.37C43.1095 59.4833 43.1379 59.5883 43.1945 59.685C43.2545 59.785 43.3445 59.87 43.4645 59.94C43.5845 60.0133 43.7345 60.07 43.9145 60.11C44.0979 60.1533 44.3129 60.175 44.5595 60.175C44.7995 60.175 45.0145 60.1533 45.2045 60.11C45.3945 60.0667 45.5545 60.005 45.6845 59.925C45.8179 59.845 45.9195 59.75 45.9895 59.64C46.0595 59.53 46.0945 59.4083 46.0945 59.275ZM46.9995 54.135V54.465C46.9995 54.575 46.9295 54.645 46.7895 54.675L46.2145 54.75C46.3279 54.97 46.3845 55.2133 46.3845 55.48C46.3845 55.7267 46.3362 55.9517 46.2395 56.155C46.1462 56.355 46.0162 56.5267 45.8495 56.67C45.6829 56.8133 45.4829 56.9233 45.2495 57C45.0162 57.0767 44.7629 57.115 44.4895 57.115C44.2529 57.115 44.0295 57.0867 43.8195 57.03C43.7129 57.0967 43.6312 57.1683 43.5745 57.245C43.5179 57.3183 43.4895 57.3933 43.4895 57.47C43.4895 57.59 43.5379 57.6817 43.6345 57.745C43.7345 57.805 43.8645 57.8483 44.0245 57.875C44.1845 57.9017 44.3662 57.9183 44.5695 57.925C44.7762 57.9317 44.9862 57.9433 45.1995 57.96C45.4162 57.9733 45.6262 57.9983 45.8295 58.035C46.0362 58.0717 46.2195 58.1317 46.3795 58.215C46.5395 58.2983 46.6679 58.4133 46.7645 58.56C46.8645 58.7067 46.9145 58.8967 46.9145 59.13C46.9145 59.3467 46.8595 59.5567 46.7495 59.76C46.6429 59.9633 46.4879 60.1433 46.2845 60.3C46.0812 60.46 45.8312 60.5867 45.5345 60.68C45.2412 60.7767 44.9095 60.825 44.5395 60.825C44.1695 60.825 43.8462 60.7883 43.5695 60.715C43.2929 60.6417 43.0629 60.5433 42.8795 60.42C42.6962 60.2967 42.5579 60.1533 42.4645 59.99C42.3745 59.83 42.3295 59.6617 42.3295 59.485C42.3295 59.235 42.4079 59.0233 42.5645 58.85C42.7212 58.6767 42.9362 58.5383 43.2095 58.435C43.0595 58.3683 42.9395 58.28 42.8495 58.17C42.7629 58.0567 42.7195 57.905 42.7195 57.715C42.7195 57.6417 42.7329 57.5667 42.7595 57.49C42.7862 57.41 42.8262 57.3317 42.8795 57.255C42.9362 57.175 43.0045 57.1 43.0845 57.03C43.1645 56.96 43.2579 56.8983 43.3645 56.845C43.1145 56.705 42.9195 56.52 42.7795 56.29C42.6395 56.0567 42.5695 55.7867 42.5695 55.48C42.5695 55.2333 42.6162 55.01 42.7095 54.81C42.8062 54.6067 42.9395 54.435 43.1095 54.295C43.2795 54.1517 43.4812 54.0417 43.7145 53.965C43.9512 53.8883 44.2095 53.85 44.4895 53.85C44.7095 53.85 44.9145 53.875 45.1045 53.925C45.2945 53.9717 45.4679 54.0417 45.6245 54.135H46.9995ZM52.2898 53.935L49.4648 60.495C49.4348 60.5617 49.3965 60.615 49.3498 60.655C49.3065 60.695 49.2382 60.715 49.1448 60.715H48.4848L49.4098 58.705L47.3198 53.935H48.0898C48.1665 53.935 48.2265 53.955 48.2698 53.995C48.3165 54.0317 48.3482 54.0733 48.3648 54.12L49.7198 57.31C49.7732 57.45 49.8182 57.5967 49.8548 57.75C49.9015 57.5933 49.9515 57.445 50.0048 57.305L51.3198 54.12C51.3398 54.0667 51.3732 54.0233 51.4198 53.99C51.4698 53.9533 51.5248 53.935 51.5848 53.935H52.2898Z" fill="#686868"/>
<path d="M34.7328 34.3468C34.5074 34.1664 34.3626 33.9041 34.3298 33.6173C34.297 33.3304 34.379 33.0423 34.5578 32.8156L37.4016 29.2281H34.2188L36.7344 23.7593C36.7944 23.6284 36.8798 23.5107 36.9855 23.4128C37.0912 23.3149 37.2152 23.2389 37.3504 23.1891C37.4855 23.1393 37.6292 23.1167 37.7731 23.1226C37.9171 23.1285 38.0584 23.1627 38.1891 23.2234C38.32 23.2835 38.4378 23.3688 38.5356 23.4745C38.6335 23.5802 38.7095 23.7042 38.7593 23.8394C38.8091 23.9746 38.8317 24.1182 38.8258 24.2622C38.8199 24.4061 38.7857 24.5474 38.725 24.6781L37.6313 26.9859H41.875L36.2313 34.1172C36.0595 34.3416 35.8076 34.4909 35.5283 34.5337C35.2489 34.5765 34.9639 34.5096 34.7328 34.3468Z" fill="#686868"/>
<path d="M30.9375 27.9156C30.9375 27.3116 30.4478 26.8219 29.8438 26.8219C29.2397 26.8219 28.75 27.3116 28.75 27.9156V30.1031C28.75 30.7072 29.2397 31.1969 29.8438 31.1969C30.4478 31.1969 30.9375 30.7072 30.9375 30.1031V27.9156Z" fill="#686868"/>
<path d="M43.2859 15.4688V13.8063C43.2859 13.45 43.2158 13.0973 43.0795 12.7682C42.9431 12.4391 42.7433 12.1401 42.4915 11.8882C42.2396 11.6363 41.9406 11.4365 41.6115 11.3002C41.2824 11.1639 40.9296 11.0938 40.5734 11.0938H34.4266C33.7072 11.0938 33.0172 11.3795 32.5085 11.8882C31.9998 12.3969 31.7141 13.0869 31.7141 13.8063V15.4688C30.918 15.4971 30.1641 15.8334 29.6112 16.4067C29.0582 16.9801 28.7495 17.7457 28.75 18.5422V23.3328C28.75 23.6229 28.8652 23.9011 29.0704 24.1062C29.2755 24.3113 29.5537 24.4266 29.8438 24.4266C30.1338 24.4266 30.412 24.3113 30.6171 24.1062C30.8223 23.9011 30.9375 23.6229 30.9375 23.3328V18.5422C30.9375 18.3072 31.0308 18.0819 31.197 17.9157C31.3631 17.7496 31.5885 17.6562 31.8234 17.6562H43.1766C43.4115 17.6562 43.6369 17.7496 43.803 17.9157C43.9692 18.0819 44.0625 18.3072 44.0625 18.5422V40.8328C44.0625 41.0678 43.9692 41.2931 43.803 41.4593C43.6369 41.6254 43.4115 41.7188 43.1766 41.7188H31.8234C31.5885 41.7188 31.3631 41.6254 31.197 41.4593C31.0308 41.2931 30.9375 41.0678 30.9375 40.8328V34.675C30.9375 34.3849 30.8223 34.1067 30.6171 33.9016C30.412 33.6965 30.1338 33.5812 29.8438 33.5812C29.5537 33.5812 29.2755 33.6965 29.0704 33.9016C28.8652 34.1067 28.75 34.3849 28.75 34.675V40.8328C28.75 41.2364 28.8295 41.6361 28.984 42.009C29.1384 42.3819 29.3648 42.7207 29.6502 43.0061C29.9356 43.2915 30.2744 43.5178 30.6473 43.6723C31.0202 43.8268 31.4198 43.9062 31.8234 43.9062H43.1766C43.9917 43.9062 44.7734 43.5824 45.3498 43.0061C45.9262 42.4297 46.25 41.6479 46.25 40.8328V18.5422C46.2505 17.7457 45.9418 16.9801 45.3888 16.4067C44.8359 15.8334 44.082 15.4971 43.2859 15.4688ZM41.0984 15.4688H33.9016V13.8063C33.9016 13.667 33.9569 13.5335 34.0553 13.435C34.1538 13.3366 34.2873 13.2812 34.4266 13.2812H40.5734C40.6424 13.2812 40.7107 13.2948 40.7743 13.3212C40.838 13.3476 40.8959 13.3863 40.9447 13.435C40.9934 13.4838 41.0321 13.5416 41.0585 13.6053C41.0849 13.669 41.0984 13.7373 41.0984 13.8063V15.4688Z" fill="#686868"/>
</svg>
