<svg width="75" height="75" viewBox="0 0 75 75" fill="none" xmlns="http://www.w3.org/2000/svg">
<circle cx="37.5" cy="37.5" r="36" fill="white" stroke="#4B76E5" stroke-width="3"/>
<path d="M22.98 58.185V59H18.915V51.835H19.88V58.185H22.98ZM25.6154 53.855C25.9854 53.855 26.3187 53.9167 26.6154 54.04C26.9121 54.1633 27.1654 54.3383 27.3754 54.565C27.5854 54.7917 27.7454 55.0667 27.8554 55.39C27.9687 55.71 28.0254 56.0683 28.0254 56.465C28.0254 56.865 27.9687 57.225 27.8554 57.545C27.7454 57.865 27.5854 58.1383 27.3754 58.365C27.1654 58.5917 26.9121 58.7667 26.6154 58.89C26.3187 59.01 25.9854 59.07 25.6154 59.07C25.2421 59.07 24.9054 59.01 24.6054 58.89C24.3087 58.7667 24.0554 58.5917 23.8454 58.365C23.6354 58.1383 23.4737 57.865 23.3604 57.545C23.2504 57.225 23.1954 56.865 23.1954 56.465C23.1954 56.0683 23.2504 55.71 23.3604 55.39C23.4737 55.0667 23.6354 54.7917 23.8454 54.565C24.0554 54.3383 24.3087 54.1633 24.6054 54.04C24.9054 53.9167 25.2421 53.855 25.6154 53.855ZM25.6154 58.375C26.1154 58.375 26.4887 58.2083 26.7354 57.875C26.9821 57.5383 27.1054 57.07 27.1054 56.47C27.1054 55.8667 26.9821 55.3967 26.7354 55.06C26.4887 54.7233 26.1154 54.555 25.6154 54.555C25.3621 54.555 25.1404 54.5983 24.9504 54.685C24.7637 54.7717 24.6071 54.8967 24.4804 55.06C24.3571 55.2233 24.2637 55.425 24.2004 55.665C24.1404 55.9017 24.1104 56.17 24.1104 56.47C24.1104 57.07 24.2337 57.5383 24.4804 57.875C24.7304 58.2083 25.1087 58.375 25.6154 58.375ZM30.8899 56.525C31.0699 56.525 31.2283 56.5 31.3649 56.45C31.5016 56.4 31.6166 56.33 31.7099 56.24C31.8033 56.15 31.8733 56.0433 31.9199 55.92C31.9666 55.7933 31.9899 55.655 31.9899 55.505C31.9899 55.195 31.8949 54.9483 31.7049 54.765C31.5183 54.5817 31.2466 54.49 30.8899 54.49C30.5299 54.49 30.2549 54.5817 30.0649 54.765C29.8783 54.9483 29.7849 55.195 29.7849 55.505C29.7849 55.655 29.8083 55.7933 29.8549 55.92C29.9049 56.0433 29.9766 56.15 30.0699 56.24C30.1633 56.33 30.2783 56.4 30.4149 56.45C30.5516 56.5 30.7099 56.525 30.8899 56.525ZM32.4949 59.275C32.4949 59.1517 32.4599 59.0517 32.3899 58.975C32.3199 58.8983 32.2249 58.8383 32.1049 58.795C31.9883 58.7517 31.8516 58.7217 31.6949 58.705C31.5383 58.685 31.3716 58.67 31.1949 58.66C31.0216 58.65 30.8449 58.64 30.6649 58.63C30.4849 58.62 30.3116 58.6033 30.1449 58.58C29.9583 58.6667 29.8049 58.7767 29.6849 58.91C29.5683 59.04 29.5099 59.1933 29.5099 59.37C29.5099 59.4833 29.5383 59.5883 29.5949 59.685C29.6549 59.785 29.7449 59.87 29.8649 59.94C29.9849 60.0133 30.1349 60.07 30.3149 60.11C30.4983 60.1533 30.7133 60.175 30.9599 60.175C31.1999 60.175 31.4149 60.1533 31.6049 60.11C31.7949 60.0667 31.9549 60.005 32.0849 59.925C32.2183 59.845 32.3199 59.75 32.3899 59.64C32.4599 59.53 32.4949 59.4083 32.4949 59.275ZM33.3999 54.135V54.465C33.3999 54.575 33.3299 54.645 33.1899 54.675L32.6149 54.75C32.7283 54.97 32.7849 55.2133 32.7849 55.48C32.7849 55.7267 32.7366 55.9517 32.6399 56.155C32.5466 56.355 32.4166 56.5267 32.2499 56.67C32.0833 56.8133 31.8833 56.9233 31.6499 57C31.4166 57.0767 31.1633 57.115 30.8899 57.115C30.6533 57.115 30.4299 57.0867 30.2199 57.03C30.1133 57.0967 30.0316 57.1683 29.9749 57.245C29.9183 57.3183 29.8899 57.3933 29.8899 57.47C29.8899 57.59 29.9383 57.6817 30.0349 57.745C30.1349 57.805 30.2649 57.8483 30.4249 57.875C30.5849 57.9017 30.7666 57.9183 30.9699 57.925C31.1766 57.9317 31.3866 57.9433 31.5999 57.96C31.8166 57.9733 32.0266 57.9983 32.2299 58.035C32.4366 58.0717 32.6199 58.1317 32.7799 58.215C32.9399 58.2983 33.0683 58.4133 33.1649 58.56C33.2649 58.7067 33.3149 58.8967 33.3149 59.13C33.3149 59.3467 33.2599 59.5567 33.1499 59.76C33.0433 59.9633 32.8883 60.1433 32.6849 60.3C32.4816 60.46 32.2316 60.5867 31.9349 60.68C31.6416 60.7767 31.3099 60.825 30.9399 60.825C30.5699 60.825 30.2466 60.7883 29.9699 60.715C29.6933 60.6417 29.4633 60.5433 29.2799 60.42C29.0966 60.2967 28.9583 60.1533 28.8649 59.99C28.7749 59.83 28.7299 59.6617 28.7299 59.485C28.7299 59.235 28.8083 59.0233 28.9649 58.85C29.1216 58.6767 29.3366 58.5383 29.6099 58.435C29.4599 58.3683 29.3399 58.28 29.2499 58.17C29.1633 58.0567 29.1199 57.905 29.1199 57.715C29.1199 57.6417 29.1333 57.5667 29.1599 57.49C29.1866 57.41 29.2266 57.3317 29.2799 57.255C29.3366 57.175 29.4049 57.1 29.4849 57.03C29.5649 56.96 29.6583 56.8983 29.7649 56.845C29.5149 56.705 29.3199 56.52 29.1799 56.29C29.0399 56.0567 28.9699 55.7867 28.9699 55.48C28.9699 55.2333 29.0166 55.01 29.1099 54.81C29.2066 54.6067 29.3399 54.435 29.5099 54.295C29.6799 54.1517 29.8816 54.0417 30.1149 53.965C30.3516 53.8883 30.6099 53.85 30.8899 53.85C31.1099 53.85 31.3149 53.875 31.5049 53.925C31.6949 53.9717 31.8683 54.0417 32.0249 54.135H33.3999ZM35.2602 53.935V59H34.3702V53.935H35.2602ZM35.4502 52.345C35.4502 52.4317 35.4319 52.5133 35.3952 52.59C35.3619 52.6633 35.3152 52.73 35.2552 52.79C35.1986 52.8467 35.1302 52.8917 35.0502 52.925C34.9736 52.9583 34.8919 52.975 34.8052 52.975C34.7186 52.975 34.6369 52.9583 34.5602 52.925C34.4869 52.8917 34.4219 52.8467 34.3652 52.79C34.3086 52.73 34.2636 52.6633 34.2302 52.59C34.1969 52.5133 34.1802 52.4317 34.1802 52.345C34.1802 52.2583 34.1969 52.1767 34.2302 52.1C34.2636 52.02 34.3086 51.9517 34.3652 51.895C34.4219 51.835 34.4869 51.7883 34.5602 51.755C34.6369 51.7217 34.7186 51.705 34.8052 51.705C34.8919 51.705 34.9736 51.7217 35.0502 51.755C35.1302 51.7883 35.1986 51.835 35.2552 51.895C35.3152 51.9517 35.3619 52.02 35.3952 52.1C35.4319 52.1767 35.4502 52.2583 35.4502 52.345ZM39.6726 54.77C39.6326 54.8433 39.5709 54.88 39.4876 54.88C39.4376 54.88 39.3809 54.8617 39.3176 54.825C39.2542 54.7883 39.1759 54.7483 39.0826 54.705C38.9926 54.6583 38.8842 54.6167 38.7576 54.58C38.6309 54.54 38.4809 54.52 38.3076 54.52C38.1576 54.52 38.0226 54.54 37.9026 54.58C37.7826 54.6167 37.6792 54.6683 37.5926 54.735C37.5092 54.8017 37.4442 54.88 37.3976 54.97C37.3542 55.0567 37.3326 55.1517 37.3326 55.255C37.3326 55.385 37.3692 55.4933 37.4426 55.58C37.5192 55.6667 37.6192 55.7417 37.7426 55.805C37.8659 55.8683 38.0059 55.925 38.1626 55.975C38.3192 56.0217 38.4792 56.0733 38.6426 56.13C38.8092 56.1833 38.9709 56.2433 39.1276 56.31C39.2842 56.3767 39.4242 56.46 39.5476 56.56C39.6709 56.66 39.7692 56.7833 39.8426 56.93C39.9192 57.0733 39.9576 57.2467 39.9576 57.45C39.9576 57.6833 39.9159 57.9 39.8326 58.1C39.7492 58.2967 39.6259 58.4683 39.4626 58.615C39.2992 58.7583 39.0992 58.8717 38.8626 58.955C38.6259 59.0383 38.3526 59.08 38.0426 59.08C37.6892 59.08 37.3692 59.0233 37.0826 58.91C36.7959 58.7933 36.5526 58.645 36.3526 58.465L36.5626 58.125C36.5892 58.0817 36.6209 58.0483 36.6576 58.025C36.6942 58.0017 36.7409 57.99 36.7976 57.99C36.8576 57.99 36.9209 58.0133 36.9876 58.06C37.0542 58.1067 37.1342 58.1583 37.2276 58.215C37.3242 58.2717 37.4409 58.3233 37.5776 58.37C37.7142 58.4167 37.8842 58.44 38.0876 58.44C38.2609 58.44 38.4126 58.4183 38.5426 58.375C38.6726 58.3283 38.7809 58.2667 38.8676 58.19C38.9542 58.1133 39.0176 58.025 39.0576 57.925C39.1009 57.825 39.1226 57.7183 39.1226 57.605C39.1226 57.465 39.0842 57.35 39.0076 57.26C38.9342 57.1667 38.8359 57.0883 38.7126 57.025C38.5892 56.9583 38.4476 56.9017 38.2876 56.855C38.1309 56.805 37.9692 56.7533 37.8026 56.7C37.6392 56.6467 37.4776 56.5867 37.3176 56.52C37.1609 56.45 37.0209 56.3633 36.8976 56.26C36.7742 56.1567 36.6742 56.03 36.5976 55.88C36.5242 55.7267 36.4876 55.5417 36.4876 55.325C36.4876 55.1317 36.5276 54.9467 36.6076 54.77C36.6876 54.59 36.8042 54.4333 36.9576 54.3C37.1109 54.1633 37.2992 54.055 37.5226 53.975C37.7459 53.895 38.0009 53.855 38.2876 53.855C38.6209 53.855 38.9192 53.9083 39.1826 54.015C39.4492 54.1183 39.6792 54.2617 39.8726 54.445L39.6726 54.77ZM45.7488 59H44.8588V54.68H42.2488V57.72C42.2488 57.9333 42.3004 58.0917 42.4038 58.195C42.5071 58.2983 42.6404 58.35 42.8038 58.35C42.8971 58.35 42.9771 58.3383 43.0438 58.315C43.1138 58.2883 43.1738 58.26 43.2238 58.23C43.2738 58.2 43.3154 58.1733 43.3488 58.15C43.3854 58.1233 43.4171 58.11 43.4438 58.11C43.4904 58.11 43.5321 58.1383 43.5688 58.195L43.8288 58.62C43.6754 58.7633 43.4904 58.8767 43.2738 58.96C43.0571 59.04 42.8338 59.08 42.6038 59.08C42.2038 59.08 41.8954 58.9683 41.6788 58.745C41.4654 58.5217 41.3588 58.2 41.3588 57.78V54.68H40.7488C40.6954 54.68 40.6504 54.665 40.6138 54.635C40.5771 54.6017 40.5588 54.5517 40.5588 54.485V54.13L41.3888 54.02L41.5938 52.46C41.6038 52.41 41.6254 52.37 41.6588 52.34C41.6954 52.3067 41.7421 52.29 41.7988 52.29H42.2488V54.035H45.7488V59ZM45.9688 52.31C45.9688 52.3967 45.9504 52.4783 45.9138 52.555C45.8804 52.6283 45.8338 52.6933 45.7738 52.75C45.7171 52.8067 45.6504 52.8517 45.5738 52.885C45.4971 52.9183 45.4154 52.935 45.3288 52.935C45.2421 52.935 45.1604 52.9183 45.0838 52.885C45.0104 52.8517 44.9454 52.8067 44.8888 52.75C44.8321 52.6933 44.7871 52.6283 44.7538 52.555C44.7204 52.4783 44.7038 52.3967 44.7038 52.31C44.7038 52.2233 44.7204 52.1417 44.7538 52.065C44.7871 51.985 44.8321 51.9167 44.8888 51.86C44.9454 51.8 45.0104 51.7533 45.0838 51.72C45.1604 51.6867 45.2421 51.67 45.3288 51.67C45.4154 51.67 45.4971 51.6867 45.5738 51.72C45.6504 51.7533 45.7171 51.8 45.7738 51.86C45.8338 51.9167 45.8804 51.985 45.9138 52.065C45.9504 52.1417 45.9688 52.2233 45.9688 52.31ZM50.7359 54.835C50.7092 54.8717 50.6825 54.9 50.6559 54.92C50.6292 54.94 50.5925 54.95 50.5459 54.95C50.4959 54.95 50.4409 54.93 50.3809 54.89C50.3209 54.8467 50.2459 54.8 50.1559 54.75C50.0692 54.7 49.9609 54.655 49.8309 54.615C49.7042 54.5717 49.5475 54.55 49.3609 54.55C49.1109 54.55 48.8909 54.595 48.7009 54.685C48.5109 54.7717 48.3509 54.8983 48.2209 55.065C48.0942 55.2317 47.9975 55.4333 47.9309 55.67C47.8675 55.9067 47.8359 56.1717 47.8359 56.465C47.8359 56.7717 47.8709 57.045 47.9409 57.285C48.0109 57.5217 48.1092 57.7217 48.2359 57.885C48.3659 58.045 48.5209 58.1683 48.7009 58.255C48.8842 58.3383 49.0892 58.38 49.3159 58.38C49.5325 58.38 49.7109 58.355 49.8509 58.305C49.9909 58.2517 50.1059 58.1933 50.1959 58.13C50.2892 58.0667 50.3659 58.01 50.4259 57.96C50.4892 57.9067 50.5509 57.88 50.6109 57.88C50.6842 57.88 50.7409 57.9083 50.7809 57.965L51.0309 58.29C50.9209 58.4267 50.7959 58.5433 50.6559 58.64C50.5159 58.7367 50.3642 58.8183 50.2009 58.885C50.0409 58.9483 49.8725 58.995 49.6959 59.025C49.5192 59.055 49.3392 59.07 49.1559 59.07C48.8392 59.07 48.5442 59.0117 48.2709 58.895C48.0009 58.7783 47.7659 58.61 47.5659 58.39C47.3659 58.1667 47.2092 57.8933 47.0959 57.57C46.9825 57.2467 46.9259 56.8783 46.9259 56.465C46.9259 56.0883 46.9775 55.74 47.0809 55.42C47.1875 55.1 47.3409 54.825 47.5409 54.595C47.7442 54.3617 47.9925 54.18 48.2859 54.05C48.5825 53.92 48.9225 53.855 49.3059 53.855C49.6625 53.855 49.9759 53.9133 50.2459 54.03C50.5192 54.1433 50.7609 54.305 50.9709 54.515L50.7359 54.835ZM54.9363 54.77C54.8963 54.8433 54.8346 54.88 54.7513 54.88C54.7013 54.88 54.6446 54.8617 54.5813 54.825C54.5179 54.7883 54.4396 54.7483 54.3463 54.705C54.2563 54.6583 54.1479 54.6167 54.0213 54.58C53.8946 54.54 53.7446 54.52 53.5713 54.52C53.4213 54.52 53.2863 54.54 53.1663 54.58C53.0463 54.6167 52.9429 54.6683 52.8563 54.735C52.7729 54.8017 52.7079 54.88 52.6613 54.97C52.6179 55.0567 52.5963 55.1517 52.5963 55.255C52.5963 55.385 52.6329 55.4933 52.7063 55.58C52.7829 55.6667 52.8829 55.7417 53.0063 55.805C53.1296 55.8683 53.2696 55.925 53.4263 55.975C53.5829 56.0217 53.7429 56.0733 53.9063 56.13C54.0729 56.1833 54.2346 56.2433 54.3913 56.31C54.5479 56.3767 54.6879 56.46 54.8113 56.56C54.9346 56.66 55.0329 56.7833 55.1063 56.93C55.1829 57.0733 55.2213 57.2467 55.2213 57.45C55.2213 57.6833 55.1796 57.9 55.0963 58.1C55.0129 58.2967 54.8896 58.4683 54.7263 58.615C54.5629 58.7583 54.3629 58.8717 54.1263 58.955C53.8896 59.0383 53.6163 59.08 53.3063 59.08C52.9529 59.08 52.6329 59.0233 52.3463 58.91C52.0596 58.7933 51.8163 58.645 51.6163 58.465L51.8263 58.125C51.8529 58.0817 51.8846 58.0483 51.9213 58.025C51.9579 58.0017 52.0046 57.99 52.0613 57.99C52.1213 57.99 52.1846 58.0133 52.2513 58.06C52.3179 58.1067 52.3979 58.1583 52.4913 58.215C52.5879 58.2717 52.7046 58.3233 52.8413 58.37C52.9779 58.4167 53.1479 58.44 53.3513 58.44C53.5246 58.44 53.6763 58.4183 53.8062 58.375C53.9363 58.3283 54.0446 58.2667 54.1313 58.19C54.2179 58.1133 54.2813 58.025 54.3213 57.925C54.3646 57.825 54.3863 57.7183 54.3863 57.605C54.3863 57.465 54.3479 57.35 54.2713 57.26C54.1979 57.1667 54.0996 57.0883 53.9763 57.025C53.8529 56.9583 53.7113 56.9017 53.5513 56.855C53.3946 56.805 53.2329 56.7533 53.0663 56.7C52.9029 56.6467 52.7413 56.5867 52.5813 56.52C52.4246 56.45 52.2846 56.3633 52.1613 56.26C52.0379 56.1567 51.9379 56.03 51.8613 55.88C51.7879 55.7267 51.7513 55.5417 51.7513 55.325C51.7513 55.1317 51.7913 54.9467 51.8713 54.77C51.9513 54.59 52.0679 54.4333 52.2213 54.3C52.3746 54.1633 52.5629 54.055 52.7863 53.975C53.0096 53.895 53.2646 53.855 53.5513 53.855C53.8846 53.855 54.1829 53.9083 54.4463 54.015C54.7129 54.1183 54.9429 54.2617 55.1363 54.445L54.9363 54.77Z" fill="#4B76E5"/>
<path d="M51.3541 29.2791C51.1607 29.2791 50.9753 29.356 50.8385 29.4927C50.7018 29.6295 50.625 29.8149 50.625 30.0083C50.625 32.925 46.25 35.6521 40.4166 36.4541V26.2458H46.9791C47.498 26.1608 47.9697 25.8941 48.3101 25.4934C48.6505 25.0927 48.8374 24.5841 48.8374 24.0583C48.8374 23.5325 48.6505 23.0239 48.3101 22.6232C47.9697 22.2225 47.498 21.9558 46.9791 21.8708H40.4166V17.7291C41.0439 17.1733 41.4983 16.449 41.7258 15.6424C41.9533 14.8358 41.9443 13.9808 41.7 13.1791C41.5028 12.4978 41.1429 11.8746 40.6514 11.3632C40.1598 10.8518 39.5513 10.4676 38.8782 10.2438C38.2051 10.0199 37.4877 9.96302 36.7878 10.0781C36.0878 10.1931 35.4264 10.4766 34.8604 10.9041C34.3457 11.3025 33.9244 11.8086 33.626 12.3869C33.3276 12.9653 33.1592 13.6019 33.1328 14.2521C33.1064 14.9024 33.2226 15.5506 33.4732 16.1512C33.7237 16.7518 34.1026 17.2904 34.5833 17.7291V21.8562H28.0208C27.5019 21.9412 27.0302 22.2079 26.6898 22.6086C26.3494 23.0093 26.1625 23.518 26.1625 24.0437C26.1625 24.5695 26.3494 25.0781 26.6898 25.4789C27.0302 25.8796 27.5019 26.1462 28.0208 26.2312H34.5833V36.5562C28.4437 36.0604 24.375 33.4646 24.375 29.9646C24.375 29.7712 24.2981 29.5857 24.1614 29.449C24.0246 29.3122 23.8392 29.2354 23.6458 29.2354C23.4524 29.2354 23.2669 29.3122 23.1302 29.449C22.9934 29.5857 22.9166 29.7712 22.9166 29.9646V34.3396C22.9166 38.4667 26.7229 41.4271 33.125 42.2437C34.2315 42.3947 35.257 42.9074 36.0416 43.7021L36.975 44.65C37.0427 44.7183 37.1234 44.7726 37.2122 44.8096C37.3011 44.8466 37.3964 44.8657 37.4927 44.8657C37.5889 44.8657 37.6842 44.8466 37.7731 44.8096C37.8619 44.7726 37.9426 44.7183 38.0104 44.65L39.2208 43.425C39.9506 42.7213 40.8755 42.2537 41.875 42.0833C48.0583 40.9312 52.0833 37.9271 52.0833 34.4125V30.0375C52.0872 29.9393 52.0713 29.8413 52.0364 29.7495C52.0015 29.6576 51.9484 29.5738 51.8803 29.5029C51.8122 29.4321 51.7305 29.3758 51.6401 29.3373C51.5497 29.2989 51.4524 29.2791 51.3541 29.2791ZM50.625 34.4562C50.625 37.1979 47.0229 39.7062 41.6416 40.6979C40.3279 40.9401 39.1209 41.5818 38.1854 42.5354L37.5 43.2354L37.077 42.8125C36.0552 41.7738 34.7155 41.1065 33.2708 40.9166C27.7 40.2021 24.375 37.7812 24.375 34.4562V33.8875C26.3583 36.25 30.2083 37.8541 35.2687 38.1021C35.3681 38.1093 35.4678 38.0948 35.561 38.0595C35.6542 38.0243 35.7386 37.9691 35.8083 37.8979C35.8807 37.8308 35.9387 37.7496 35.9788 37.6593C36.019 37.5691 36.0403 37.4716 36.0416 37.3729V25.5604C36.0416 25.367 35.9648 25.1815 35.8281 25.0448C35.6913 24.9081 35.5058 24.8312 35.3125 24.8312H28.0208C27.8623 24.786 27.7229 24.6903 27.6237 24.5587C27.5244 24.4272 27.4708 24.2669 27.4708 24.1021C27.4708 23.9373 27.5244 23.7769 27.6237 23.6454C27.7229 23.5138 27.8623 23.4182 28.0208 23.3729H35.3125C35.5058 23.3729 35.6913 23.2961 35.8281 23.1593C35.9648 23.0226 36.0416 22.8371 36.0416 22.6437V17.3791C36.0416 17.2659 36.0153 17.1543 35.9646 17.0531C35.914 16.9518 35.8405 16.8637 35.75 16.7958C35.3867 16.5151 35.0926 16.1549 34.8903 15.7428C34.688 15.3308 34.5828 14.8778 34.5828 14.4187C34.5828 13.9597 34.688 13.5067 34.8903 13.0946C35.0926 12.6826 35.3867 12.3224 35.75 12.0416C36.1233 11.7581 36.5595 11.5686 37.0216 11.4894C37.4837 11.4102 37.958 11.4436 38.4045 11.5867C38.8509 11.7298 39.2563 11.9784 39.5863 12.3115C39.9162 12.6445 40.161 13.0522 40.3 13.5C40.4729 14.0825 40.4651 14.7038 40.2777 15.2818C40.0902 15.8598 39.7319 16.3673 39.25 16.7375C39.1594 16.8054 39.0859 16.8935 39.0353 16.9947C38.9846 17.096 38.9583 17.2076 38.9583 17.3208V22.5854C38.9583 22.7788 39.0351 22.9643 39.1719 23.101C39.3086 23.2377 39.4941 23.3146 39.6875 23.3146H46.9791C47.1376 23.3598 47.277 23.4555 47.3762 23.5871C47.4755 23.7186 47.5292 23.8789 47.5292 24.0437C47.5292 24.2085 47.4755 24.3688 47.3762 24.5004C47.277 24.632 47.1376 24.7276 46.9791 24.7729H39.6875C39.4941 24.7729 39.3086 24.8497 39.1719 24.9865C39.0351 25.1232 38.9583 25.3087 38.9583 25.5021V37.1687C38.9578 37.2709 38.9788 37.3721 39.0199 37.4657C39.061 37.5593 39.1213 37.6432 39.197 37.7119C39.2726 37.7807 39.3618 37.8328 39.4589 37.8648C39.556 37.8968 39.6587 37.9081 39.7604 37.8979C44.6895 37.3875 48.6125 35.7104 50.625 33.4354V34.4562ZM37.5 12.9166C37.2115 12.9166 36.9296 13.0022 36.6898 13.1624C36.4499 13.3227 36.263 13.5504 36.1526 13.8169C36.0423 14.0834 36.0134 14.3766 36.0696 14.6595C36.1259 14.9424 36.2648 15.2022 36.4688 15.4062C36.6727 15.6101 36.9326 15.749 37.2155 15.8053C37.4983 15.8616 37.7916 15.8327 38.058 15.7223C38.3245 15.6119 38.5523 15.425 38.7125 15.1852C38.8728 14.9454 38.9583 14.6634 38.9583 14.375C38.9583 13.9882 38.8046 13.6173 38.5312 13.3438C38.2577 13.0703 37.8867 12.9166 37.5 12.9166Z" fill="#4B76E5"/>
</svg>
