<svg width="524" height="524" viewBox="0 0 524 524" fill="none" xmlns="http://www.w3.org/2000/svg">
<circle cx="259" cy="261" r="200" stroke="white" stroke-width="0.8" stroke-miterlimit="1" stroke-dasharray="2 4"/>
<path d="M347.006 82.7832C347.54 81.7367 347.126 80.4538 346.073 79.9304C318.467 66.1982 288.05 59.0305 257.197 59.0001C226.345 58.9697 195.913 66.0774 168.28 79.7551C167.227 80.2764 166.809 81.5585 167.342 82.6061V82.6061C167.874 83.6536 169.155 84.07 170.208 83.549C197.243 70.1754 227.012 63.2258 257.193 63.2556C287.374 63.2854 317.129 70.2936 344.138 83.7204C345.19 84.2435 346.471 83.8297 347.006 82.7832V82.7832Z" fill="white"/>
<path d="M404.906 398.567C405.755 399.379 407.103 399.351 407.906 398.493C428.992 375.997 444.598 348.923 453.493 319.38C462.388 289.838 464.325 258.648 459.165 228.249C458.969 227.091 457.861 226.322 456.704 226.531V226.531C455.548 226.74 454.781 227.847 454.977 229.006C460.018 258.743 458.12 289.254 449.419 318.153C440.717 347.053 425.454 373.539 404.832 395.55C404.029 396.408 404.057 397.754 404.906 398.567V398.567Z" fill="white"/>
<path d="M62.0594 225.179C60.722 224.939 59.4422 225.83 59.2193 227.17C54.1517 257.641 56.2093 288.883 65.2453 318.445C74.2814 348.006 90.0432 375.06 111.281 397.49C112.215 398.476 113.774 398.499 114.749 397.553V397.553C115.724 396.606 115.746 395.05 114.812 394.063C94.1177 372.193 78.7583 345.821 69.9504 317.006C61.1426 288.191 59.1324 257.739 64.0628 228.037C64.2852 226.696 63.3968 225.418 62.0594 225.179V225.179Z" fill="#4B76E5"/>
</svg>
