<svg width="75" height="75" viewBox="0 0 75 75" fill="none" xmlns="http://www.w3.org/2000/svg">
<circle cx="37.5" cy="37.5" r="37.5" fill="white"/>
<g clip-path="url(#clip0_2_77)">
<path d="M26.1463 23.8607V23.8606C26.46 22.3415 24.6394 19.0817 24.4307 18.715C24.3946 18.6517 24.3455 18.5967 24.2865 18.5539C24.2276 18.511 24.1602 18.4812 24.0888 18.4665C24.0174 18.4517 23.9437 18.4524 23.8726 18.4684C23.8015 18.4843 23.7346 18.5153 23.6764 18.5592C23.3395 18.8133 20.3763 21.085 20.0626 22.6041C19.7221 24.2523 20.8097 25.8752 22.487 26.2216C22.6974 26.2652 22.9117 26.2872 23.1266 26.2873C24.5631 26.2873 25.8494 25.2979 26.1463 23.8607ZM25.1421 23.6532V23.6532C24.916 24.7477 23.8184 25.4497 22.6944 25.2174C21.5709 24.9853 20.8407 23.906 21.0667 22.8114C21.2221 22.059 22.6876 20.6659 23.8247 19.7453C24.5038 21.041 25.2975 22.9008 25.1421 23.6532ZM55.0955 31.1709C55.0954 31.1618 55.0955 31.1527 55.0949 31.1436C55.0944 31.1357 55.0934 31.1278 55.0925 31.1199C55.0916 31.1114 55.0909 31.1029 55.0895 31.0943C55.0881 31.0855 55.086 31.0767 55.0841 31.0679C55.0825 31.0604 55.0812 31.0529 55.0792 31.0454C55.0767 31.0357 55.0734 31.0262 55.0703 31.0166C55.0681 31.01 55.0663 31.0034 55.0638 30.9969C55.0603 30.9874 55.056 30.9781 55.0519 30.9687C55.0493 30.9629 55.0473 30.957 55.0445 30.9513C55.044 30.9504 55.0435 30.9496 55.0431 30.9487C55.0396 30.9418 55.0356 30.9351 55.0318 30.9282C55.0269 30.9194 55.0222 30.9104 55.0169 30.902L55.0159 30.9002L50.6641 24.0576L50.8168 23.9327C51.0633 23.7323 51.2304 23.4505 51.2879 23.1381C51.3454 22.8256 51.2896 22.5028 51.1306 22.2277L50.2148 20.6331C50.0568 20.3554 49.8043 20.1436 49.5034 20.0362C49.2024 19.9288 48.8729 19.9329 48.5748 20.0479L48.2045 20.1889L45.2525 17.5524C45.1116 17.4267 44.9399 17.3407 44.7549 17.3032C44.5699 17.2656 44.3783 17.2778 44.1996 17.3385L42.3856 17.9567C42.3773 17.9595 42.3684 17.9595 42.3602 17.9568L40.1919 17.2344C39.9454 17.1517 39.6771 17.1624 39.438 17.2643C39.1988 17.3663 39.0053 17.5525 38.8942 17.7875L34.5589 15.9854C34.4589 15.9439 34.3522 15.9207 34.2439 15.9171L25.8417 15.6499C25.7729 15.6474 25.7044 15.6588 25.6403 15.6836C25.5762 15.7084 25.5178 15.746 25.4686 15.7941C25.4193 15.8419 25.3801 15.8991 25.3533 15.9624C25.3265 16.0257 25.3127 16.0936 25.3127 16.1623V18.4279C25.3127 18.5625 25.3656 18.6918 25.4602 18.7877C25.5547 18.8836 25.6831 18.9385 25.8178 18.9405L32.9608 19.0469L37.5591 20.7404C37.4601 20.9742 37.4478 21.2357 37.5243 21.4779C37.6009 21.72 37.7612 21.9269 37.9766 22.0614L38.7918 22.5671C38.7979 22.5709 38.8029 22.5763 38.8061 22.5827C38.8094 22.5892 38.8108 22.5964 38.8102 22.6035L38.644 24.6398C38.6256 24.8691 38.6817 25.0983 38.8038 25.2933L40.4839 27.9641L44.3649 34.5001C44.636 34.957 45.0654 35.2984 45.5716 35.4596C46.0778 35.6209 46.6255 35.5907 47.1109 35.3748C47.1162 35.3725 47.1215 35.37 47.1268 35.3675L47.207 35.3285C47.2538 35.3136 47.2982 35.2921 47.3389 35.2644L48.5283 34.6866L51.2239 39.1047C51.2948 39.2207 51.4088 39.3039 51.541 39.3359C51.6731 39.3679 51.8126 39.3461 51.9286 39.2753C52.0447 39.2045 52.1279 39.0904 52.1599 38.9583C52.1919 38.8261 52.1701 38.6867 52.0993 38.5706L49.4549 34.2365L51.3535 33.3142L53.9261 37.5307C53.9969 37.6468 54.1109 37.73 54.2431 37.762C54.3752 37.794 54.5147 37.7722 54.6308 37.7014C54.7468 37.6305 54.83 37.5165 54.862 37.3844C54.894 37.2522 54.8722 37.1127 54.8014 36.9967L52.28 32.8642L54.8073 31.6365C54.8082 31.636 54.809 31.6355 54.8098 31.6351C54.8169 31.6316 54.8237 31.6275 54.8306 31.6237C54.8394 31.6188 54.8483 31.6142 54.8567 31.6089L54.8584 31.6079C54.8622 31.6055 54.8655 31.6027 54.8692 31.6002C54.8795 31.5933 54.8898 31.5863 54.8995 31.5788C54.9036 31.5756 54.9073 31.572 54.9113 31.5687C54.9204 31.5612 54.9294 31.5536 54.9379 31.5455C54.9425 31.5411 54.9467 31.5363 54.9512 31.5317C54.9583 31.5244 54.9655 31.5171 54.9721 31.5094C54.9772 31.5035 54.9817 31.4973 54.9864 31.4913C54.9919 31.4844 54.9974 31.4776 55.0025 31.4704C55.0074 31.4633 55.0119 31.456 55.0164 31.4487C55.0206 31.4421 55.025 31.4356 55.0288 31.4288C55.0332 31.421 55.0371 31.413 55.0411 31.405C55.0445 31.3983 55.048 31.3916 55.0511 31.3847C55.0546 31.3767 55.0577 31.3686 55.0608 31.3605C55.0636 31.3532 55.0666 31.346 55.0691 31.3386C55.0717 31.3308 55.0738 31.3229 55.076 31.3149C55.0783 31.307 55.0807 31.2991 55.0826 31.291C55.0843 31.2835 55.0855 31.2758 55.0869 31.2682C55.0885 31.2596 55.0903 31.251 55.0914 31.2423C55.0924 31.235 55.0928 31.2277 55.0935 31.2203C55.0943 31.2112 55.0952 31.2022 55.0956 31.193C55.0958 31.1857 55.0956 31.1783 55.0955 31.1709ZM37.9816 19.8033L33.2948 18.0772C33.1998 18.0423 33.0997 18.0236 32.9986 18.022L26.3381 17.9228V16.6916L34.1866 16.9411L38.4706 18.7219L37.9816 19.8033ZM45.2466 33.9766L41.9309 28.3927L44.4679 28.365C44.7458 28.3604 45.016 28.4563 45.2289 28.6351C45.4417 28.8138 45.5829 29.0634 45.6265 29.3379L46.4769 34.5091C46.2419 34.561 45.9965 34.5375 45.7756 34.4419C45.5547 34.3463 45.3696 34.1835 45.2466 33.9766ZM47.4443 34.0732L46.6383 29.1715C46.5566 28.659 46.2942 28.1926 45.8987 27.8566C45.5031 27.5206 45.0005 27.3372 44.4815 27.3394C44.4733 27.3394 44.4649 27.3395 44.4567 27.3396L43.5207 27.3498L46.0088 26.2444C46.2648 26.1307 46.5537 26.1148 46.8207 26.1999C47.0876 26.2849 47.3141 26.465 47.4571 26.7058L50.8409 32.4233L47.4443 34.0732ZM51.7663 31.9737L48.3393 26.1832C48.0681 25.7262 47.6387 25.3846 47.1324 25.2231C46.6261 25.0617 46.0782 25.0916 45.5925 25.3073L41.2456 27.2385L41.1982 27.1586C41.1802 27.1283 41.1592 27.1 41.1354 27.074L39.6718 24.7475C39.6673 24.7403 39.6652 24.7318 39.6659 24.7234L39.8322 22.6869C39.8486 22.4917 39.8106 22.2957 39.7223 22.1207C39.6341 21.9458 39.4991 21.7987 39.3324 21.6958L38.5172 21.1901C38.5092 21.1851 38.5032 21.1773 38.5005 21.1683C38.4977 21.1592 38.4983 21.1494 38.5022 21.1408L39.8192 18.2284C39.8233 18.2195 39.8305 18.2124 39.8394 18.2085C39.8484 18.2046 39.8585 18.2041 39.8677 18.2072L42.036 18.9296C42.257 19.0027 42.4957 19.0019 42.7162 18.9274L44.5303 18.3092C44.5369 18.3069 44.544 18.3064 44.5509 18.3078C44.5578 18.3092 44.5642 18.3124 44.5694 18.3171L47.754 21.1613C47.8241 21.2239 47.91 21.266 48.0024 21.2831C48.0948 21.3002 48.1901 21.2915 48.278 21.2581L48.9397 21.0061C49.0099 20.979 49.0874 20.978 49.1583 21.0032C49.2291 21.0285 49.2885 21.0784 49.3256 21.1438L50.2415 22.7384C50.2788 22.803 50.2919 22.8789 50.2784 22.9523C50.2649 23.0257 50.2256 23.0919 50.1676 23.139L49.6628 23.5519C49.5657 23.6313 49.5011 23.7435 49.4812 23.8674C49.4613 23.9912 49.4874 24.118 49.5547 24.2239L53.8422 30.9653L51.7663 31.9737ZM26.4421 26.5533C26.3708 26.5385 26.2971 26.5392 26.226 26.5552C26.1548 26.5712 26.088 26.6021 26.0298 26.646C25.6131 26.9603 23.5228 28.5861 23.2841 29.7418C23.0156 31.042 23.8725 32.3219 25.1943 32.5949C25.36 32.6292 25.5287 32.6465 25.6979 32.6466C26.2542 32.6494 26.7946 32.4607 27.2281 32.112C27.6617 31.7634 27.962 31.2761 28.0786 30.7321V30.732C28.3173 29.5763 27.0422 27.2554 26.7841 26.8018C26.748 26.7385 26.6989 26.6835 26.6399 26.6407C26.581 26.5978 26.5135 26.568 26.4421 26.5533ZM27.0744 30.5246C26.9202 31.2711 26.1703 31.7493 25.4017 31.5907C24.6336 31.4321 24.1341 30.6957 24.2883 29.9492C24.352 29.6408 24.9768 28.8142 26.178 27.833C26.8921 29.2088 27.1382 30.2157 27.0744 30.5246H27.0744Z" fill="#686868"/>
</g>
<path d="M25.535 55.42C25.535 55.9567 25.45 56.45 25.28 56.9C25.11 57.3467 24.87 57.7317 24.56 58.055C24.25 58.3783 23.8767 58.63 23.44 58.81C23.0067 58.9867 22.5267 59.075 22 59.075C21.4733 59.075 20.9933 58.9867 20.56 58.81C20.1267 58.63 19.755 58.3783 19.445 58.055C19.135 57.7317 18.895 57.3467 18.725 56.9C18.555 56.45 18.47 55.9567 18.47 55.42C18.47 54.8833 18.555 54.3917 18.725 53.945C18.895 53.495 19.135 53.1083 19.445 52.785C19.755 52.4583 20.1267 52.205 20.56 52.025C20.9933 51.845 21.4733 51.755 22 51.755C22.5267 51.755 23.0067 51.845 23.44 52.025C23.8767 52.205 24.25 52.4583 24.56 52.785C24.87 53.1083 25.11 53.495 25.28 53.945C25.45 54.3917 25.535 54.8833 25.535 55.42ZM24.54 55.42C24.54 54.98 24.48 54.585 24.36 54.235C24.24 53.885 24.07 53.59 23.85 53.35C23.63 53.1067 23.3633 52.92 23.05 52.79C22.7367 52.66 22.3867 52.595 22 52.595C21.6167 52.595 21.2683 52.66 20.955 52.79C20.6417 52.92 20.3733 53.1067 20.15 53.35C19.93 53.59 19.76 53.885 19.64 54.235C19.52 54.585 19.46 54.98 19.46 55.42C19.46 55.86 19.52 56.255 19.64 56.605C19.76 56.9517 19.93 57.2467 20.15 57.49C20.3733 57.73 20.6417 57.915 20.955 58.045C21.2683 58.1717 21.6167 58.235 22 58.235C22.3867 58.235 22.7367 58.1717 23.05 58.045C23.3633 57.915 23.63 57.73 23.85 57.49C24.07 57.2467 24.24 56.9517 24.36 56.605C24.48 56.255 24.54 55.86 24.54 55.42ZM27.5552 53.935V59H26.6652V53.935H27.5552ZM27.7452 52.345C27.7452 52.4317 27.7268 52.5133 27.6902 52.59C27.6568 52.6633 27.6102 52.73 27.5502 52.79C27.4935 52.8467 27.4252 52.8917 27.3452 52.925C27.2685 52.9583 27.1868 52.975 27.1002 52.975C27.0135 52.975 26.9318 52.9583 26.8552 52.925C26.7818 52.8917 26.7168 52.8467 26.6602 52.79C26.6035 52.73 26.5585 52.6633 26.5252 52.59C26.4918 52.5133 26.4752 52.4317 26.4752 52.345C26.4752 52.2583 26.4918 52.1767 26.5252 52.1C26.5585 52.02 26.6035 51.9517 26.6602 51.895C26.7168 51.835 26.7818 51.7883 26.8552 51.755C26.9318 51.7217 27.0135 51.705 27.1002 51.705C27.1868 51.705 27.2685 51.7217 27.3452 51.755C27.4252 51.7883 27.4935 51.835 27.5502 51.895C27.6102 51.9517 27.6568 52.02 27.6902 52.1C27.7268 52.1767 27.7452 52.2583 27.7452 52.345ZM29.9375 51.635V59H29.0475V51.635H29.9375ZM35.6494 55.47C35.296 55.6567 35.0294 55.8833 34.8494 56.15C34.6727 56.4167 34.5844 56.7067 34.5844 57.02C34.5844 57.2367 34.6244 57.4283 34.7044 57.595C34.7844 57.7583 34.8894 57.8967 35.0194 58.01C35.1494 58.1233 35.2977 58.21 35.4644 58.27C35.631 58.3267 35.801 58.355 35.9744 58.355C36.3477 58.355 36.6827 58.2867 36.9794 58.15C37.2794 58.0133 37.541 57.83 37.7644 57.6L35.6494 55.47ZM40.2694 59H39.4044C39.3077 59 39.2294 58.9883 39.1694 58.965C39.1094 58.9417 39.0444 58.8933 38.9744 58.82L38.2494 58.09C37.936 58.3933 37.5744 58.635 37.1644 58.815C36.7577 58.9917 36.3094 59.08 35.8194 59.08C35.5527 59.08 35.291 59.035 35.0344 58.945C34.781 58.855 34.5527 58.725 34.3494 58.555C34.146 58.3817 33.9827 58.1717 33.8594 57.925C33.736 57.6783 33.6744 57.4 33.6744 57.09C33.6744 56.8567 33.7127 56.6367 33.7894 56.43C33.8694 56.22 33.9794 56.0267 34.1194 55.85C34.2594 55.6733 34.4244 55.515 34.6144 55.375C34.8044 55.235 35.0127 55.115 35.2394 55.015C35.036 54.755 34.886 54.505 34.7894 54.265C34.6927 54.0217 34.6444 53.77 34.6444 53.51C34.6444 53.2667 34.6877 53.0383 34.7744 52.825C34.8644 52.6117 34.9927 52.4267 35.1594 52.27C35.326 52.11 35.5277 51.985 35.7644 51.895C36.0044 51.8017 36.2727 51.755 36.5694 51.755C36.8327 51.755 37.0727 51.7983 37.2894 51.885C37.506 51.9683 37.6927 52.08 37.8494 52.22C38.006 52.36 38.1294 52.5233 38.2194 52.71C38.3127 52.8933 38.366 53.085 38.3794 53.285L37.8244 53.395C37.7144 53.4217 37.6327 53.37 37.5794 53.24C37.556 53.1533 37.5177 53.0633 37.4644 52.97C37.4144 52.8767 37.3477 52.7917 37.2644 52.715C37.1844 52.6383 37.086 52.575 36.9694 52.525C36.856 52.475 36.7227 52.45 36.5694 52.45C36.4027 52.45 36.251 52.4767 36.1144 52.53C35.981 52.5833 35.866 52.6583 35.7694 52.755C35.676 52.8483 35.6044 52.96 35.5544 53.09C35.5044 53.2167 35.4794 53.355 35.4794 53.505C35.4794 53.6217 35.4927 53.7333 35.5194 53.84C35.546 53.9467 35.5877 54.055 35.6444 54.165C35.7044 54.275 35.7794 54.3867 35.8694 54.5C35.9594 54.6133 36.0677 54.7333 36.1944 54.86L38.2544 56.955C38.381 56.7283 38.4827 56.4933 38.5594 56.25C38.636 56.0033 38.686 55.7583 38.7094 55.515C38.716 55.4517 38.736 55.4017 38.7694 55.365C38.8027 55.3283 38.8494 55.31 38.9094 55.31H39.4544C39.451 55.6933 39.391 56.07 39.2744 56.44C39.1577 56.8067 38.9894 57.1517 38.7694 57.475L40.2694 59ZM49.6471 55.555V58.305C49.2871 58.565 48.9021 58.76 48.4921 58.89C48.0854 59.0167 47.6388 59.08 47.1521 59.08C46.5754 59.08 46.0554 58.9917 45.5921 58.815C45.1288 58.635 44.7321 58.385 44.4021 58.065C44.0754 57.7417 43.8238 57.355 43.6471 56.905C43.4704 56.455 43.3821 55.96 43.3821 55.42C43.3821 54.8733 43.4671 54.375 43.6371 53.925C43.8104 53.475 44.0554 53.09 44.3721 52.77C44.6888 52.4467 45.0738 52.1967 45.5271 52.02C45.9804 51.8433 46.4871 51.755 47.0471 51.755C47.3304 51.755 47.5938 51.7767 47.8371 51.82C48.0804 51.86 48.3054 51.92 48.5121 52C48.7188 52.0767 48.9104 52.1717 49.0871 52.285C49.2638 52.395 49.4288 52.52 49.5821 52.66L49.3071 53.1C49.2638 53.1667 49.2071 53.21 49.1371 53.23C49.0704 53.2467 48.9954 53.23 48.9121 53.18C48.8321 53.1333 48.7404 53.0767 48.6371 53.01C48.5338 52.9433 48.4071 52.88 48.2571 52.82C48.1104 52.7567 47.9354 52.7033 47.7321 52.66C47.5321 52.6167 47.2938 52.595 47.0171 52.595C46.6138 52.595 46.2488 52.6617 45.9221 52.795C45.5954 52.925 45.3171 53.1133 45.0871 53.36C44.8571 53.6033 44.6804 53.9 44.5571 54.25C44.4338 54.5967 44.3721 54.9867 44.3721 55.42C44.3721 55.87 44.4354 56.2733 44.5621 56.63C44.6921 56.9833 44.8754 57.285 45.1121 57.535C45.3521 57.7817 45.6421 57.97 45.9821 58.1C46.3221 58.23 46.7038 58.295 47.1271 58.295C47.4604 58.295 47.7554 58.2583 48.0121 58.185C48.2721 58.1083 48.5254 58.0033 48.7721 57.87V56.295H47.6571C47.5938 56.295 47.5421 56.2767 47.5021 56.24C47.4654 56.2033 47.4471 56.1583 47.4471 56.105V55.555H49.6471ZM53.6375 56.72C53.2275 56.7333 52.8775 56.7667 52.5875 56.82C52.3008 56.87 52.0658 56.9367 51.8825 57.02C51.7025 57.1033 51.5708 57.2017 51.4875 57.315C51.4075 57.4283 51.3675 57.555 51.3675 57.695C51.3675 57.8283 51.3892 57.9433 51.4325 58.04C51.4758 58.1367 51.5342 58.2167 51.6075 58.28C51.6842 58.34 51.7725 58.385 51.8725 58.415C51.9758 58.4417 52.0858 58.455 52.2025 58.455C52.3592 58.455 52.5025 58.44 52.6325 58.41C52.7625 58.3767 52.8842 58.33 52.9975 58.27C53.1142 58.21 53.2242 58.1383 53.3275 58.055C53.4342 57.9717 53.5375 57.8767 53.6375 57.77V56.72ZM50.7625 54.65C51.0425 54.38 51.3442 54.1783 51.6675 54.045C51.9908 53.9117 52.3492 53.845 52.7425 53.845C53.0258 53.845 53.2775 53.8917 53.4975 53.985C53.7175 54.0783 53.9025 54.2083 54.0525 54.375C54.2025 54.5417 54.3158 54.7433 54.3925 54.98C54.4692 55.2167 54.5075 55.4767 54.5075 55.76V59H54.1125C54.0258 59 53.9592 58.9867 53.9125 58.96C53.8658 58.93 53.8292 58.8733 53.8025 58.79L53.7025 58.31C53.5692 58.4333 53.4392 58.5433 53.3125 58.64C53.1858 58.7333 53.0525 58.8133 52.9125 58.88C52.7725 58.9433 52.6225 58.9917 52.4625 59.025C52.3058 59.0617 52.1308 59.08 51.9375 59.08C51.7408 59.08 51.5558 59.0533 51.3825 59C51.2092 58.9433 51.0575 58.86 50.9275 58.75C50.8008 58.64 50.6992 58.5017 50.6225 58.335C50.5492 58.165 50.5125 57.965 50.5125 57.735C50.5125 57.535 50.5675 57.3433 50.6775 57.16C50.7875 56.9733 50.9658 56.8083 51.2125 56.665C51.4592 56.5217 51.7808 56.405 52.1775 56.315C52.5742 56.2217 53.0608 56.1683 53.6375 56.155V55.76C53.6375 55.3667 53.5525 55.07 53.3825 54.87C53.2125 54.6667 52.9642 54.565 52.6375 54.565C52.4175 54.565 52.2325 54.5933 52.0825 54.65C51.9358 54.7033 51.8075 54.765 51.6975 54.835C51.5908 54.9017 51.4975 54.9633 51.4175 55.02C51.3408 55.0733 51.2642 55.1 51.1875 55.1C51.1275 55.1 51.0758 55.085 51.0325 55.055C50.9892 55.0217 50.9525 54.9817 50.9225 54.935L50.7625 54.65ZM58.8132 54.77C58.7732 54.8433 58.7115 54.88 58.6282 54.88C58.5782 54.88 58.5215 54.8617 58.4582 54.825C58.3949 54.7883 58.3165 54.7483 58.2232 54.705C58.1332 54.6583 58.0249 54.6167 57.8982 54.58C57.7715 54.54 57.6215 54.52 57.4482 54.52C57.2982 54.52 57.1632 54.54 57.0432 54.58C56.9232 54.6167 56.8199 54.6683 56.7332 54.735C56.6499 54.8017 56.5849 54.88 56.5382 54.97C56.4949 55.0567 56.4732 55.1517 56.4732 55.255C56.4732 55.385 56.5099 55.4933 56.5832 55.58C56.6599 55.6667 56.7599 55.7417 56.8832 55.805C57.0065 55.8683 57.1465 55.925 57.3032 55.975C57.4599 56.0217 57.6199 56.0733 57.7832 56.13C57.9499 56.1833 58.1115 56.2433 58.2682 56.31C58.4249 56.3767 58.5649 56.46 58.6882 56.56C58.8115 56.66 58.9099 56.7833 58.9832 56.93C59.0599 57.0733 59.0982 57.2467 59.0982 57.45C59.0982 57.6833 59.0565 57.9 58.9732 58.1C58.8899 58.2967 58.7665 58.4683 58.6032 58.615C58.4399 58.7583 58.2399 58.8717 58.0032 58.955C57.7665 59.0383 57.4932 59.08 57.1832 59.08C56.8299 59.08 56.5099 59.0233 56.2232 58.91C55.9365 58.7933 55.6932 58.645 55.4932 58.465L55.7032 58.125C55.7299 58.0817 55.7615 58.0483 55.7982 58.025C55.8349 58.0017 55.8815 57.99 55.9382 57.99C55.9982 57.99 56.0615 58.0133 56.1282 58.06C56.1949 58.1067 56.2749 58.1583 56.3682 58.215C56.4649 58.2717 56.5815 58.3233 56.7182 58.37C56.8549 58.4167 57.0249 58.44 57.2282 58.44C57.4015 58.44 57.5532 58.4183 57.6832 58.375C57.8132 58.3283 57.9215 58.2667 58.0082 58.19C58.0949 58.1133 58.1582 58.025 58.1982 57.925C58.2415 57.825 58.2632 57.7183 58.2632 57.605C58.2632 57.465 58.2249 57.35 58.1482 57.26C58.0749 57.1667 57.9765 57.0883 57.8532 57.025C57.7299 56.9583 57.5882 56.9017 57.4282 56.855C57.2715 56.805 57.1099 56.7533 56.9432 56.7C56.7799 56.6467 56.6182 56.5867 56.4582 56.52C56.3015 56.45 56.1615 56.3633 56.0382 56.26C55.9149 56.1567 55.8149 56.03 55.7382 55.88C55.6649 55.7267 55.6282 55.5417 55.6282 55.325C55.6282 55.1317 55.6682 54.9467 55.7482 54.77C55.8282 54.59 55.9449 54.4333 56.0982 54.3C56.2515 54.1633 56.4399 54.055 56.6632 53.975C56.8865 53.895 57.1415 53.855 57.4282 53.855C57.7615 53.855 58.0599 53.9083 58.3232 54.015C58.5899 54.1183 58.8199 54.2617 59.0132 54.445L58.8132 54.77Z" fill="#686868"/>
<defs>
<clipPath id="clip0_2_77">
<rect width="35" height="35" fill="white" transform="translate(20 10)"/>
</clipPath>
</defs>
</svg>
