<svg width="400" height="431" viewBox="0 0 400 431" fill="none" xmlns="http://www.w3.org/2000/svg">
<path d="M290.006 54.7832C290.54 53.7367 290.126 52.4538 289.073 51.9304C261.467 38.1982 231.05 31.0305 200.197 31.0001C169.345 30.9697 138.913 38.0774 111.28 51.7551C110.227 52.2764 109.809 53.5585 110.342 54.6061V54.6061C110.874 55.6536 112.155 56.07 113.208 55.549C140.243 42.1754 170.012 35.2258 200.193 35.2556C230.374 35.2854 260.129 42.2936 287.138 55.7204C288.19 56.2435 289.471 55.8297 290.006 54.7832V54.7832Z" fill="white"/>
<circle cx="201.5" cy="37.5" r="37.5" fill="white"/>
<g clip-path="url(#clip0_2_77)">
<path d="M190.146 23.8607V23.8606C190.46 22.3415 188.639 19.0817 188.431 18.715C188.395 18.6517 188.345 18.5967 188.287 18.5539C188.228 18.511 188.16 18.4812 188.089 18.4665C188.017 18.4517 187.944 18.4524 187.873 18.4684C187.801 18.4844 187.735 18.5153 187.676 18.5592C187.34 18.8133 184.376 21.085 184.063 22.6041C183.722 24.2523 184.81 25.8752 186.487 26.2216C186.697 26.2652 186.912 26.2872 187.127 26.2873C188.563 26.2873 189.849 25.2979 190.146 23.8607ZM189.142 23.6532V23.6532C188.916 24.7477 187.818 25.4497 186.694 25.2174C185.571 24.9853 184.841 23.906 185.067 22.8114C185.222 22.059 186.688 20.6659 187.825 19.7453C188.504 21.041 189.298 22.9008 189.142 23.6532V23.6532ZM219.096 31.1709C219.095 31.1618 219.096 31.1527 219.095 31.1436C219.094 31.1357 219.093 31.1278 219.093 31.1199C219.092 31.1114 219.091 31.1029 219.089 31.0943C219.088 31.0855 219.086 31.0767 219.084 31.0679C219.083 31.0604 219.081 31.0529 219.079 31.0454C219.077 31.0357 219.073 31.0262 219.07 31.0166C219.068 31.01 219.066 31.0034 219.064 30.9969C219.06 30.9874 219.056 30.9781 219.052 30.9687C219.049 30.9629 219.047 30.957 219.044 30.9513C219.044 30.9504 219.044 30.9496 219.043 30.9487C219.04 30.9418 219.036 30.9351 219.032 30.9282C219.027 30.9194 219.022 30.9104 219.017 30.902L219.016 30.9002L214.664 24.0576L214.817 23.9327C215.063 23.7323 215.23 23.4505 215.288 23.1381C215.345 22.8256 215.29 22.5028 215.131 22.2277L214.215 20.6331C214.057 20.3554 213.804 20.1436 213.503 20.0362C213.202 19.9288 212.873 19.9329 212.575 20.0479L212.204 20.1889L209.253 17.5524C209.112 17.4267 208.94 17.3407 208.755 17.3032C208.57 17.2656 208.378 17.2778 208.2 17.3385L206.386 17.9567C206.377 17.9595 206.368 17.9595 206.36 17.9568L204.192 17.2344C203.945 17.1517 203.677 17.1624 203.438 17.2643C203.199 17.3663 203.005 17.5525 202.894 17.7875L198.559 15.9854C198.459 15.9439 198.352 15.9207 198.244 15.9171L189.842 15.6499C189.773 15.6474 189.704 15.6588 189.64 15.6836C189.576 15.7084 189.518 15.746 189.469 15.7941C189.419 15.8419 189.38 15.8991 189.353 15.9624C189.326 16.0257 189.313 16.0936 189.313 16.1623V18.4279C189.313 18.5625 189.366 18.6918 189.46 18.7877C189.555 18.8836 189.683 18.9385 189.818 18.9405L196.961 19.0469L201.559 20.7404C201.46 20.9742 201.448 21.2357 201.524 21.4779C201.601 21.72 201.761 21.9269 201.977 22.0614L202.792 22.5671C202.798 22.5709 202.803 22.5763 202.806 22.5827C202.809 22.5892 202.811 22.5964 202.81 22.6035L202.644 24.6398C202.626 24.8691 202.682 25.0983 202.804 25.2933L204.484 27.9641L208.365 34.5001C208.636 34.957 209.065 35.2984 209.572 35.4596C210.078 35.6209 210.626 35.5907 211.111 35.3748C211.116 35.3725 211.122 35.37 211.127 35.3675L211.207 35.3285C211.254 35.3136 211.298 35.2921 211.339 35.2644L212.528 34.6866L215.224 39.1047C215.295 39.2207 215.409 39.3039 215.541 39.3359C215.673 39.3679 215.813 39.3461 215.929 39.2753C216.045 39.2045 216.128 39.0904 216.16 38.9583C216.192 38.8261 216.17 38.6867 216.099 38.5706L213.455 34.2365L215.353 33.3142L217.926 37.5307C217.997 37.6468 218.111 37.73 218.243 37.762C218.375 37.794 218.515 37.7722 218.631 37.7014C218.747 37.6305 218.83 37.5165 218.862 37.3844C218.894 37.2522 218.872 37.1127 218.801 36.9967L216.28 32.8642L218.807 31.6365C218.808 31.636 218.809 31.6355 218.81 31.6351C218.817 31.6316 218.824 31.6275 218.831 31.6237C218.839 31.6188 218.848 31.6142 218.857 31.6089L218.858 31.6079C218.862 31.6055 218.866 31.6027 218.869 31.6002C218.88 31.5933 218.89 31.5863 218.899 31.5788C218.904 31.5756 218.907 31.572 218.911 31.5687C218.92 31.5612 218.929 31.5536 218.938 31.5455C218.943 31.5411 218.947 31.5363 218.951 31.5317C218.958 31.5244 218.966 31.5171 218.972 31.5094C218.977 31.5035 218.982 31.4973 218.986 31.4913C218.992 31.4844 218.997 31.4776 219.002 31.4704C219.007 31.4633 219.012 31.456 219.016 31.4487C219.021 31.4421 219.025 31.4356 219.029 31.4288C219.033 31.421 219.037 31.413 219.041 31.405C219.044 31.3983 219.048 31.3916 219.051 31.3847C219.055 31.3767 219.058 31.3686 219.061 31.3605C219.064 31.3532 219.067 31.346 219.069 31.3386C219.072 31.3308 219.074 31.3229 219.076 31.3149C219.078 31.307 219.081 31.2991 219.083 31.291C219.084 31.2835 219.086 31.2758 219.087 31.2682C219.089 31.2596 219.09 31.251 219.091 31.2423C219.092 31.235 219.093 31.2277 219.093 31.2203C219.094 31.2112 219.095 31.2022 219.096 31.193C219.096 31.1857 219.096 31.1783 219.096 31.1709ZM201.982 19.8033L197.295 18.0772C197.2 18.0423 197.1 18.0236 196.999 18.022L190.338 17.9228V16.6916L198.187 16.9411L202.471 18.7219L201.982 19.8033ZM209.247 33.9766L205.931 28.3927L208.468 28.365C208.746 28.3604 209.016 28.4563 209.229 28.6351C209.442 28.8138 209.583 29.0634 209.626 29.3379L210.477 34.5091C210.242 34.561 209.996 34.5375 209.776 34.4419C209.555 34.3463 209.37 34.1835 209.247 33.9766ZM211.444 34.0732L210.638 29.1715C210.557 28.659 210.294 28.1926 209.899 27.8566C209.503 27.5206 209 27.3372 208.481 27.3394C208.473 27.3394 208.465 27.3395 208.457 27.3396L207.521 27.3498L210.009 26.2444C210.265 26.1307 210.554 26.1148 210.821 26.1999C211.088 26.2849 211.314 26.465 211.457 26.7058L214.841 32.4233L211.444 34.0732ZM215.766 31.9737L212.339 26.1832C212.068 25.7262 211.639 25.3846 211.132 25.2231C210.626 25.0617 210.078 25.0916 209.593 25.3073L205.246 27.2385L205.198 27.1586C205.18 27.1283 205.159 27.1 205.135 27.074L203.672 24.7475C203.667 24.7403 203.665 24.7318 203.666 24.7234L203.832 22.6869C203.849 22.4917 203.811 22.2957 203.722 22.1207C203.634 21.9458 203.499 21.7987 203.332 21.6958L202.517 21.1901C202.509 21.1851 202.503 21.1773 202.5 21.1683C202.498 21.1592 202.498 21.1494 202.502 21.1408L203.819 18.2284C203.823 18.2195 203.83 18.2124 203.839 18.2085C203.848 18.2046 203.858 18.2041 203.868 18.2072L206.036 18.9296C206.257 19.0027 206.496 19.0019 206.716 18.9274L208.53 18.3092C208.537 18.3069 208.544 18.3064 208.551 18.3078C208.558 18.3092 208.564 18.3124 208.569 18.3171L211.754 21.1613C211.824 21.2239 211.91 21.266 212.002 21.2831C212.095 21.3002 212.19 21.2915 212.278 21.2581L212.94 21.0061C213.01 20.979 213.087 20.978 213.158 21.0032C213.229 21.0285 213.288 21.0784 213.326 21.1438L214.241 22.7384C214.279 22.803 214.292 22.8789 214.278 22.9523C214.265 23.0257 214.226 23.0919 214.168 23.139L213.663 23.5519C213.566 23.6313 213.501 23.7435 213.481 23.8674C213.461 23.9912 213.487 24.118 213.555 24.2239L217.842 30.9653L215.766 31.9737ZM190.442 26.5533C190.371 26.5385 190.297 26.5392 190.226 26.5552C190.155 26.5712 190.088 26.6021 190.03 26.646C189.613 26.9603 187.523 28.5861 187.284 29.7418C187.016 31.042 187.872 32.3219 189.194 32.5949C189.36 32.6292 189.529 32.6465 189.698 32.6466C190.254 32.6494 190.795 32.4607 191.228 32.112C191.662 31.7634 191.962 31.2761 192.079 30.7321V30.732C192.317 29.5763 191.042 27.2554 190.784 26.8018C190.748 26.7385 190.699 26.6835 190.64 26.6407C190.581 26.5978 190.514 26.568 190.442 26.5533V26.5533ZM191.074 30.5246C190.92 31.2711 190.17 31.7493 189.402 31.5907C188.634 31.4321 188.134 30.6957 188.288 29.9492C188.352 29.6408 188.977 28.8142 190.178 27.833C190.892 29.2088 191.138 30.2157 191.074 30.5246H191.074Z" fill="#686868"/>
</g>
<path d="M189.535 55.42C189.535 55.9567 189.45 56.45 189.28 56.9C189.11 57.3467 188.87 57.7317 188.56 58.055C188.25 58.3783 187.877 58.63 187.44 58.81C187.007 58.9867 186.527 59.075 186 59.075C185.473 59.075 184.993 58.9867 184.56 58.81C184.127 58.63 183.755 58.3783 183.445 58.055C183.135 57.7317 182.895 57.3467 182.725 56.9C182.555 56.45 182.47 55.9567 182.47 55.42C182.47 54.8833 182.555 54.3917 182.725 53.945C182.895 53.495 183.135 53.1083 183.445 52.785C183.755 52.4583 184.127 52.205 184.56 52.025C184.993 51.845 185.473 51.755 186 51.755C186.527 51.755 187.007 51.845 187.44 52.025C187.877 52.205 188.25 52.4583 188.56 52.785C188.87 53.1083 189.11 53.495 189.28 53.945C189.45 54.3917 189.535 54.8833 189.535 55.42ZM188.54 55.42C188.54 54.98 188.48 54.585 188.36 54.235C188.24 53.885 188.07 53.59 187.85 53.35C187.63 53.1067 187.363 52.92 187.05 52.79C186.737 52.66 186.387 52.595 186 52.595C185.617 52.595 185.268 52.66 184.955 52.79C184.642 52.92 184.373 53.1067 184.15 53.35C183.93 53.59 183.76 53.885 183.64 54.235C183.52 54.585 183.46 54.98 183.46 55.42C183.46 55.86 183.52 56.255 183.64 56.605C183.76 56.9517 183.93 57.2467 184.15 57.49C184.373 57.73 184.642 57.915 184.955 58.045C185.268 58.1717 185.617 58.235 186 58.235C186.387 58.235 186.737 58.1717 187.05 58.045C187.363 57.915 187.63 57.73 187.85 57.49C188.07 57.2467 188.24 56.9517 188.36 56.605C188.48 56.255 188.54 55.86 188.54 55.42ZM191.555 53.935V59H190.665V53.935H191.555ZM191.745 52.345C191.745 52.4317 191.727 52.5133 191.69 52.59C191.657 52.6633 191.61 52.73 191.55 52.79C191.493 52.8467 191.425 52.8917 191.345 52.925C191.268 52.9583 191.187 52.975 191.1 52.975C191.013 52.975 190.932 52.9583 190.855 52.925C190.782 52.8917 190.717 52.8467 190.66 52.79C190.603 52.73 190.558 52.6633 190.525 52.59C190.492 52.5133 190.475 52.4317 190.475 52.345C190.475 52.2583 190.492 52.1767 190.525 52.1C190.558 52.02 190.603 51.9517 190.66 51.895C190.717 51.835 190.782 51.7883 190.855 51.755C190.932 51.7217 191.013 51.705 191.1 51.705C191.187 51.705 191.268 51.7217 191.345 51.755C191.425 51.7883 191.493 51.835 191.55 51.895C191.61 51.9517 191.657 52.02 191.69 52.1C191.727 52.1767 191.745 52.2583 191.745 52.345ZM193.938 51.635V59H193.047V51.635H193.938ZM199.649 55.47C199.296 55.6567 199.029 55.8833 198.849 56.15C198.673 56.4167 198.584 56.7067 198.584 57.02C198.584 57.2367 198.624 57.4283 198.704 57.595C198.784 57.7583 198.889 57.8967 199.019 58.01C199.149 58.1233 199.298 58.21 199.464 58.27C199.631 58.3267 199.801 58.355 199.974 58.355C200.348 58.355 200.683 58.2867 200.979 58.15C201.279 58.0133 201.541 57.83 201.764 57.6L199.649 55.47ZM204.269 59H203.404C203.308 59 203.229 58.9883 203.169 58.965C203.109 58.9417 203.044 58.8933 202.974 58.82L202.249 58.09C201.936 58.3933 201.574 58.635 201.164 58.815C200.758 58.9917 200.309 59.08 199.819 59.08C199.553 59.08 199.291 59.035 199.034 58.945C198.781 58.855 198.553 58.725 198.349 58.555C198.146 58.3817 197.983 58.1717 197.859 57.925C197.736 57.6783 197.674 57.4 197.674 57.09C197.674 56.8567 197.713 56.6367 197.789 56.43C197.869 56.22 197.979 56.0267 198.119 55.85C198.259 55.6733 198.424 55.515 198.614 55.375C198.804 55.235 199.013 55.115 199.239 55.015C199.036 54.755 198.886 54.505 198.789 54.265C198.693 54.0217 198.644 53.77 198.644 53.51C198.644 53.2667 198.688 53.0383 198.774 52.825C198.864 52.6117 198.993 52.4267 199.159 52.27C199.326 52.11 199.528 51.985 199.764 51.895C200.004 51.8017 200.273 51.755 200.569 51.755C200.833 51.755 201.073 51.7983 201.289 51.885C201.506 51.9683 201.693 52.08 201.849 52.22C202.006 52.36 202.129 52.5233 202.219 52.71C202.313 52.8933 202.366 53.085 202.379 53.285L201.824 53.395C201.714 53.4217 201.633 53.37 201.579 53.24C201.556 53.1533 201.518 53.0633 201.464 52.97C201.414 52.8767 201.348 52.7917 201.264 52.715C201.184 52.6383 201.086 52.575 200.969 52.525C200.856 52.475 200.723 52.45 200.569 52.45C200.403 52.45 200.251 52.4767 200.114 52.53C199.981 52.5833 199.866 52.6583 199.769 52.755C199.676 52.8483 199.604 52.96 199.554 53.09C199.504 53.2167 199.479 53.355 199.479 53.505C199.479 53.6217 199.493 53.7333 199.519 53.84C199.546 53.9467 199.588 54.055 199.644 54.165C199.704 54.275 199.779 54.3867 199.869 54.5C199.959 54.6133 200.068 54.7333 200.194 54.86L202.254 56.955C202.381 56.7283 202.483 56.4933 202.559 56.25C202.636 56.0033 202.686 55.7583 202.709 55.515C202.716 55.4517 202.736 55.4017 202.769 55.365C202.803 55.3283 202.849 55.31 202.909 55.31H203.454C203.451 55.6933 203.391 56.07 203.274 56.44C203.158 56.8067 202.989 57.1517 202.769 57.475L204.269 59ZM213.647 55.555V58.305C213.287 58.565 212.902 58.76 212.492 58.89C212.085 59.0167 211.639 59.08 211.152 59.08C210.575 59.08 210.055 58.9917 209.592 58.815C209.129 58.635 208.732 58.385 208.402 58.065C208.075 57.7417 207.824 57.355 207.647 56.905C207.47 56.455 207.382 55.96 207.382 55.42C207.382 54.8733 207.467 54.375 207.637 53.925C207.81 53.475 208.055 53.09 208.372 52.77C208.689 52.4467 209.074 52.1967 209.527 52.02C209.98 51.8433 210.487 51.755 211.047 51.755C211.33 51.755 211.594 51.7767 211.837 51.82C212.08 51.86 212.305 51.92 212.512 52C212.719 52.0767 212.91 52.1717 213.087 52.285C213.264 52.395 213.429 52.52 213.582 52.66L213.307 53.1C213.264 53.1667 213.207 53.21 213.137 53.23C213.07 53.2467 212.995 53.23 212.912 53.18C212.832 53.1333 212.74 53.0767 212.637 53.01C212.534 52.9433 212.407 52.88 212.257 52.82C212.11 52.7567 211.935 52.7033 211.732 52.66C211.532 52.6167 211.294 52.595 211.017 52.595C210.614 52.595 210.249 52.6617 209.922 52.795C209.595 52.925 209.317 53.1133 209.087 53.36C208.857 53.6033 208.68 53.9 208.557 54.25C208.434 54.5967 208.372 54.9867 208.372 55.42C208.372 55.87 208.435 56.2733 208.562 56.63C208.692 56.9833 208.875 57.285 209.112 57.535C209.352 57.7817 209.642 57.97 209.982 58.1C210.322 58.23 210.704 58.295 211.127 58.295C211.46 58.295 211.755 58.2583 212.012 58.185C212.272 58.1083 212.525 58.0033 212.772 57.87V56.295H211.657C211.594 56.295 211.542 56.2767 211.502 56.24C211.465 56.2033 211.447 56.1583 211.447 56.105V55.555H213.647ZM217.638 56.72C217.228 56.7333 216.878 56.7667 216.588 56.82C216.301 56.87 216.066 56.9367 215.883 57.02C215.703 57.1033 215.571 57.2017 215.488 57.315C215.408 57.4283 215.368 57.555 215.368 57.695C215.368 57.8283 215.389 57.9433 215.433 58.04C215.476 58.1367 215.534 58.2167 215.608 58.28C215.684 58.34 215.773 58.385 215.873 58.415C215.976 58.4417 216.086 58.455 216.203 58.455C216.359 58.455 216.503 58.44 216.633 58.41C216.763 58.3767 216.884 58.33 216.998 58.27C217.114 58.21 217.224 58.1383 217.328 58.055C217.434 57.9717 217.538 57.8767 217.638 57.77V56.72ZM214.763 54.65C215.043 54.38 215.344 54.1783 215.668 54.045C215.991 53.9117 216.349 53.845 216.743 53.845C217.026 53.845 217.278 53.8917 217.498 53.985C217.718 54.0783 217.903 54.2083 218.053 54.375C218.203 54.5417 218.316 54.7433 218.393 54.98C218.469 55.2167 218.508 55.4767 218.508 55.76V59H218.113C218.026 59 217.959 58.9867 217.913 58.96C217.866 58.93 217.829 58.8733 217.803 58.79L217.703 58.31C217.569 58.4333 217.439 58.5433 217.312 58.64C217.186 58.7333 217.053 58.8133 216.913 58.88C216.773 58.9433 216.623 58.9917 216.463 59.025C216.306 59.0617 216.131 59.08 215.938 59.08C215.741 59.08 215.556 59.0533 215.383 59C215.209 58.9433 215.058 58.86 214.928 58.75C214.801 58.64 214.699 58.5017 214.623 58.335C214.549 58.165 214.513 57.965 214.513 57.735C214.513 57.535 214.568 57.3433 214.678 57.16C214.788 56.9733 214.966 56.8083 215.213 56.665C215.459 56.5217 215.781 56.405 216.178 56.315C216.574 56.2217 217.061 56.1683 217.638 56.155V55.76C217.638 55.3667 217.553 55.07 217.383 54.87C217.213 54.6667 216.964 54.565 216.638 54.565C216.418 54.565 216.233 54.5933 216.083 54.65C215.936 54.7033 215.808 54.765 215.698 54.835C215.591 54.9017 215.498 54.9633 215.418 55.02C215.341 55.0733 215.264 55.1 215.188 55.1C215.128 55.1 215.076 55.085 215.033 55.055C214.989 55.0217 214.953 54.9817 214.922 54.935L214.763 54.65ZM222.813 54.77C222.773 54.8433 222.712 54.88 222.628 54.88C222.578 54.88 222.522 54.8617 222.458 54.825C222.395 54.7883 222.317 54.7483 222.223 54.705C222.133 54.6583 222.025 54.6167 221.898 54.58C221.772 54.54 221.622 54.52 221.448 54.52C221.298 54.52 221.163 54.54 221.043 54.58C220.923 54.6167 220.82 54.6683 220.733 54.735C220.65 54.8017 220.585 54.88 220.538 54.97C220.495 55.0567 220.473 55.1517 220.473 55.255C220.473 55.385 220.51 55.4933 220.583 55.58C220.66 55.6667 220.76 55.7417 220.883 55.805C221.007 55.8683 221.147 55.925 221.303 55.975C221.46 56.0217 221.62 56.0733 221.783 56.13C221.95 56.1833 222.112 56.2433 222.268 56.31C222.425 56.3767 222.565 56.46 222.688 56.56C222.812 56.66 222.91 56.7833 222.983 56.93C223.06 57.0733 223.098 57.2467 223.098 57.45C223.098 57.6833 223.057 57.9 222.973 58.1C222.89 58.2967 222.767 58.4683 222.603 58.615C222.44 58.7583 222.24 58.8717 222.003 58.955C221.767 59.0383 221.493 59.08 221.183 59.08C220.83 59.08 220.51 59.0233 220.223 58.91C219.937 58.7933 219.693 58.645 219.493 58.465L219.703 58.125C219.73 58.0817 219.762 58.0483 219.798 58.025C219.835 58.0017 219.882 57.99 219.938 57.99C219.998 57.99 220.062 58.0133 220.128 58.06C220.195 58.1067 220.275 58.1583 220.368 58.215C220.465 58.2717 220.582 58.3233 220.718 58.37C220.855 58.4167 221.025 58.44 221.228 58.44C221.402 58.44 221.553 58.4183 221.683 58.375C221.813 58.3283 221.922 58.2667 222.008 58.19C222.095 58.1133 222.158 58.025 222.198 57.925C222.242 57.825 222.263 57.7183 222.263 57.605C222.263 57.465 222.225 57.35 222.148 57.26C222.075 57.1667 221.977 57.0883 221.853 57.025C221.73 56.9583 221.588 56.9017 221.428 56.855C221.272 56.805 221.11 56.7533 220.943 56.7C220.78 56.6467 220.618 56.5867 220.458 56.52C220.302 56.45 220.162 56.3633 220.038 56.26C219.915 56.1567 219.815 56.03 219.738 55.88C219.665 55.7267 219.628 55.5417 219.628 55.325C219.628 55.1317 219.668 54.9467 219.748 54.77C219.828 54.59 219.945 54.4333 220.098 54.3C220.252 54.1633 220.44 54.055 220.663 53.975C220.887 53.895 221.142 53.855 221.428 53.855C221.762 53.855 222.06 53.9083 222.323 54.015C222.59 54.1183 222.82 54.2617 223.013 54.445L222.813 54.77Z" fill="#686868"/>
<defs>
<clipPath id="clip0_2_77">
<rect width="35" height="35" fill="white" transform="translate(184 10)"/>
</clipPath>
</defs>
</svg>
